PathFileType	4	(X/Y/Z)	C:/Users/beibeiliu/ov580/test_trc\sequence.21_training_dense_right.trc
DataRate	CameraRate	NumFrames	NumMarkers	Units	OrigDataRate	OrigDataStartFrame	OrigNumFrames
120	120	8	19	mm	120	53	78
Frame#	Time	ThumbCMC			ThumbMCP			ThumbIP			ThumbTip			IndexMCP			IndexPIP			IndexTip			MiddleMCP			MiddlePIP			MiddleTip			RingMCP			RingPIP			RingTip			PinkyMCP			PinkyPIP			PinkyTip			BackHand1			BackHand2			BackHand3	
		X0	Y0	Z0	X1	Y1	Z1	X2	Y2	Z2	X3	Y3	Z3	X4	Y4	Z4	X5	Y5	Z5	X6	Y6	Z6	X7	Y7	Z7	X8	Y8	Z8	X9	Y9	Z9	X10	Y10	Z10	X11	Y11	Z11	X12	Y12	Z12	X13	Y13	Z13	X14	Y14	Z14	X15	Y15	Z15	X16	Y16	Z16	X17	Y17	Z17	X18	Y18	Z18	
52	0.433333	109.198	78.7093	16.5652	92.2473	100.871	12.9107	89.5831	121.409	5.78574	85.1243	135.667	-0.398762	44.1324	80.6694	-11.2331	21.7039	89.9039	-7.96775	2.82266	99.5148	-0.115675	38.2469	73.4354	10.2353	40.7609	93.4597	36.8456	70.6105	86.7579	38.9574	37.4945	65.8617	29.2467	51.5953	79.3075	44.9351	78.3388	69.2297	42.4458	41.8269	50.7114	37.9346	53.7541	64.7671	50.8208	80.0102	62.0741	45.611	77.4822	37.0517	10.6277	99.7911	27.4868	17.3355	102.354	53.4581	1.9552	
53	0.441667	101.969	71.2374	12.9513	98.4592	94.0689	8.67813	96.2013	113.512	-3.48513	94.7155	126.673	-11.6562	43.1672	82.4384	-22.4332	25.6282	96.6107	-24.4813	6.42857	115.121	-23.8058	36.2343	83.256	-1.23163	36.4419	102.352	23.3614	65.2335	86.7379	32.7191	32.325	75.6264	15.5364	46.7147	87.0787	37.1134	71.0185	71.2985	34.1862	29.1447	63.6748	28.1564	43.3416	76.55	41.6404	68.2526	64.6209	37.9785	56.771	33.9202	8.29947	81.9727	22.8328	22.8575	90.9113	44.4437	3.31589	
54	0.45	97.5183	63.3782	15.1041	92.1071	86.4004	2.24635	96.0703	103.175	-13.0983	98.629	115.1	-23.3229	45.2383	74.2536	-34.3434	31.9937	87.2911	-43.5293	14.7111	108.818	-52.0736	30.1724	83.2994	-12.1367	35.9407	105.386	4.76373	59.7918	89.8477	21.4695	24.2667	81.4871	5.8583	37.6616	92.6288	24.7877	60.037	73.3793	27.1099	19.6621	69.0896	17.346	35.0627	84.5475	30.0845	54.385	68.9419	30.8506	45.8564	33.7823	9.35962	62.5655	25.0256	28.3389	78.4786	39.949	5.70838	
55	0.458333	88.1026	61.2661	16.1165	90.1741	82.4005	-0.652977	91.788	93.4966	-18.532	103.922	103.779	-33.419	46.9376	60.6488	-43.3164	36.4683	72.7252	-57.676	24.8678	87.6638	-73.2157	33.3374	77.0574	-26.7701	37.5882	103.41	-13.8726	56.7248	85.198	11.607	24.8305	80.452	-11.9595	32.8687	95.7175	6.38928	53.0964	75.9204	19.6818	13.4446	73.0687	4.31698	31.5199	89.0306	13.6532	44.881	74.0203	26.4793	41.2716	35.5888	8.94794	56.5148	28.3238	34.0486	70.248	34.0535	7.66393	
56	0.466667	89.2213	59.5847	17.3233	90.3191	76.5542	-5.24804	97.2872	83.9004	-24.9961	106.015	90.0225	-41.254	56.2126	44.7351	-43.6086	47.5525	53.3083	-64.993	38.2603	63.7975	-86.3913	37.6608	63.4722	-33.8957	38.6943	92.7626	-27.2284	53.3106	84.3615	1.9638	26.9904	72.453	-21.5576	34.0481	90.8399	-7.3671	51.3959	78.2948	10.1288	17.2527	70.0817	-8.58943	31.8784	86.711	0.641668	44.0605	74.1819	18.0364	37.2533	32.0511	15.3879	48.7904	29.2772	36.4235	71.2194	33.6452	15.9487	
57	0.475	90.3312	57.0118	14.0269	91.0683	69.7271	-8.54353	98.3569	76.1045	-25.2824	108.748	79.5222	-41.3769	65.6644	34.0467	-40.3848	55.0605	36.4973	-62.885	49.1587	40.8728	-85.0846	44.101	52.4273	-37.6166	47.5358	84.2568	-32.9428	58.6397	79.7974	-6.55236	33.0935	58.4717	-25.1343	42.326	83.9327	-19.1898	57.501	72.3812	5.21094	21.1243	61.9658	-13.9013	32.1076	82.8073	-7.50191	50.5199	71.6875	12.7192	41.8135	31.1027	13.102	56.8127	31.9026	39.3238	73.7066	29.8953	17.4202	
58	0.483333	104.016	54.356	11.5938	101.887	63.4204	-10.9692	110.711	63.0536	-32.1422	122.426	66.9059	-44.3044	78.222	18.5694	-39.4429	70.1112	16.6486	-61.8051	64.4486	15.9155	-79.8365	57.4202	40.7327	-41.2673	58.7143	67.0807	-43.9137	71.2646	72.8922	-14.0592	45.3406	49.1399	-31.9593	52.7784	73.0946	-25.8688	68.1698	67.0977	0.0199933	31.9715	51.0167	-18.8802	45.7961	71.688	-18.0126	59.3629	68.5451	3.50545	57.4872	27.126	16.2581	63.4041	32.9014	39.2189	83.8402	27.7741	22.1245	
59	0.491667	117.487	54.1457	9.94949	116.483	59.9314	-13.4853	125.265	57.3241	-33.4429	134.976	60.1739	-45.4697	99.7991	10.9783	-31.1683	95.1401	3.09945	-53.0208	84.3712	-4.19392	-78.1525	74.9667	27.8261	-38.5206	77.1943	58.3857	-47.2164	84.4838	64.9199	-16.1565	61.2644	37.0819	-31.2159	68.3788	61.7012	-33.1866	78.1312	66.7937	-6.82429	49.3027	42.5745	-23.3741	55.5276	62.8722	-23.8077	72.4133	60.3635	-1.70375	67.6593	21.8034	14.156	75.2291	33.719	40.952	102.255	28.401	23.7427	
